PathFileType	4	(X/Y/Z)	OpenSim_Sub09_CSStiffKnee_Gyro.trc
DataRate	CameraRate	NumFrames	NumMarkers	Units	OrigDataRate	OrigDataStartFrame	OrigNumFrames
100	100	17	8	m	100	1	7127
Frame#	Time	torso_imu_offset_imu	pelvis_imu_offset_imu	tibia_r_imu_offset_imu	femur_r_imu_offset_imu	tibia_l_imu_offset_imu	femur_l_imu_offset_imu	toes_r_imu_offset_imu	toes_l_imu_offset_imu
				X1	Y1	Z1	X2	Y2	Z2	X3	Y3	Z3	X4	Y4	Z4	X5	Y5	Z5	X6	Y6	Z6	X7	Y7	Z7	X8		Y8	Z8	

1	0	0.03113172	-0.06551454	0.03009766	0.03213035	0.06132653	-0.01646967	0.01761211	0.02500905	0.03557340	-0.01950213	0.00955468	0.00996692	0.03785622	0.02185111	-0.01149845	-0.02980389	0.02024573	-0.04366861	-0.00347411	0.00538348	-0.00130230	-0.01253234	0.03176497	-0.00109840
2	0.01000000	0.02759962	-0.06265345	0.02166890	0.02589854	0.06112760	-0.01720261	0.02548485	0.02157058	0.02920635	-0.03333731	0.01031329	0.01550903	0.03985810	0.01804356	-0.01257685	-0.03161796	0.01981298	-0.04909249	-0.00191522	0.00619659	0.00169248	-0.01277139	0.02908208	-0.00186676
3	0.02000000	0.02967608	-0.06412050	0.01908974	0.02688177	0.05914313	-0.02028890	0.02220682	0.01565532	0.01922690	-0.04038624	0.01420683	0.00875653	0.03295838	0.02072104	-0.01306333	-0.02622222	0.01410191	-0.04301355	0.00056018	0.00687062	-0.00254989	-0.01046802	0.03164747	-0.00278579
4	0.03000000	0.02044810	-0.06812808	0.02364156	0.01607014	0.05737473	-0.02284606	0.01810836	0.00873068	0.02450397	-0.05067361	0.01985395	0.00547653	0.02246409	0.02189072	-0.01188044	-0.01329938	0.01407819	-0.03012133	-0.00472859	0.00567351	-0.00133126	-0.01042861	0.02759056	-0.00110587
5	0.04000000	0.01987174	-0.06487345	0.02259933	0.00483282	0.04931682	-0.02561188	0.01035601	0.00772465	0.02657700	-0.05595783	0.02755001	0.01098502	0.01002904	0.02062139	-0.01738055	-0.01585811	0.02186648	-0.01997290	-0.00243189	0.00600116	0.00365965	-0.01103775	0.02609146	-0.00508204
6	0.05000000	0.01580609	-0.06428804	0.02397384	0.00203846	0.05361099	-0.02743817	-0.00957333	0.00989190	0.02390085	-0.05687918	0.02919943	0.00490178	0.00222408	0.01242230	-0.02171668	-0.01546864	0.02654925	-0.00800727	-0.00072809	0.00518648	0.00026152	-0.00560932	0.02337592	-0.00281171
7	0.06000000	0.01250335	-0.05947042	0.01886780	-0.00323627	0.05406393	-0.02486007	-0.03436096	0.00868753	0.02541230	-0.06425089	0.02714089	0.00389382	-0.00155350	0.00725677	-0.01963595	-0.01774508	0.02555883	-0.00076870	-0.00204393	0.00574111	0.00060119	-0.00571736	0.02347551	-0.00298785
8	0.07000000	0.01071379	-0.05687029	0.01253969	-0.00598663	0.05525778	-0.02763206	-0.04670006	0.00528796	0.03362196	-0.07144476	0.02385821	0.00559770	-0.00742515	0.01065806	-0.02140650	-0.02612764	0.01961807	-0.00301083	-0.00257139	0.00414054	0.00085149	-0.00521370	0.02122603	-0.00546980
9	0.08000000	0.00499944	-0.05420511	0.01013502	-0.00456614	0.05660508	-0.03013829	-0.03814478	0.01411898	0.03313703	-0.07214804	0.02380255	0.00472360	-0.01118195	0.01046591	-0.02412217	-0.03791183	0.00720564	-0.00862022	-0.00228978	0.00512735	0.00157624	-0.00337031	0.02235366	-0.00427190
10	0.09000000	0.00206179	-0.05181131	0.00552420	0.00286459	0.05734055	-0.03358944	-0.02998163	0.01986067	0.03602678	-0.06493419	0.02661023	0.00505120	-0.00990255	0.00690756	-0.02203180	-0.05162279	0.00031356	-0.01174890	-0.00200386	0.00563088	-0.00190258	-0.00716907	0.01972333	-0.00321852
11	0.10000000	0.00195337	-0.04888473	0.00466670	0.00064437	0.06000664	-0.02883097	-0.02363984	0.01978056	0.03444609	-0.06018741	0.02565111	0.00158744	-0.01097472	-0.00761289	-0.02098285	-0.04898206	0.00554669	-0.00857643	0.00141359	0.00543266	0.00059008	-0.00682238	0.02359203	-0.00277223
12	0.11000000	0.00454835	-0.04931873	0.00234343	-0.00739413	0.06433407	-0.02545412	-0.02208046	0.02887795	0.03735395	-0.06316666	0.02352295	0.00184417	-0.01011250	-0.01123845	-0.02169802	-0.05121971	0.01331597	-0.00884001	0.00113471	0.00142343	-0.00031045	-0.00368518	0.01711810	-0.00349119
13	0.12000000	-0.00256832	-0.04302250	-0.00192361	-0.01323323	0.06486647	-0.02347838	-0.00748858	0.03783092	0.03963815	-0.06768061	0.02241963	0.00207913	-0.01248047	-0.00743500	-0.02517389	-0.04688649	0.01759710	-0.01104944	-0.00237219	0.00121605	-0.00352427	-0.00469699	0.02041915	-0.00385021
14	0.13000000	-0.01000520	-0.04171108	-0.00109663	-0.01956432	0.06813256	-0.01692279	-0.00386531	0.03430999	0.04377771	-0.06948052	0.02422421	-0.00290704	-0.02948622	-0.00166251	-0.02324423	-0.04202407	0.02621823	-0.01301200	0.00065963	-0.00081556	-0.00388918	-0.00507490	0.01774549	0.00027332
15	0.14000000	-0.00928149	-0.03975259	-0.00140869	-0.02112620	0.07167990	-0.01576986	-0.00084578	0.02980979	0.04406221	-0.06380756	0.02514089	-0.00272228	-0.05228762	-0.00487227	-0.01759500	-0.04502905	0.03466926	-0.01729445	0.00063511	-0.00031016	-0.00422626	-0.00278766	0.01380129	-0.00363244
16	0.15000000	-0.01476128	-0.03640388	-0.00085220	-0.01888174	0.06801923	-0.01617477	-0.00382385	0.02780716	0.03665781	-0.05956472	0.02260006	-0.00332566	-0.05343820	-0.00132020	-0.01743037	-0.05005129	0.04098773	-0.02351636	-0.00042035	0.00317478	-0.00002057	0.00035203	0.01343440	-0.00218219
17	0.16000000	-0.01161742	-0.03653805	-0.00294906	-0.01940746	0.06414459	-0.01606698	-0.00579018	0.02315083	0.03341139	-0.04758236	0.02041103	-0.00383385	-0.05258481	-0.00027785	-0.02057863	-0.05166008	0.04480011	-0.02368339	-0.00099564	0.00167084	-0.00073822	0.00036770	0.01309775	-0.00143667
